<svg width="100%" id="logo" xmlns="http://www.w3.org/2000/svg" xmlns:xlink="http://www.w3.org/1999/xlink" viewBox="0 0 350 60"><defs><style>.cls-1{fill:none;}.cls-2{fill:#598cc9;}.cls-3{fill:#69a342;}.cls-4{clip-path:url(#clip-path);}.cls-5{clip-path:url(#clip-path-2);}.cls-6{fill:#323487;}</style><clipPath id="clip-path" transform="translate(0 0)"><rect class="cls-1" x="103.016" y="20.956" width="246.984" height="15.38"/></clipPath><clipPath id="clip-path-2" transform="translate(0 0)"><rect class="cls-1" x="103.016" y="20.957" width="246.984" height="15.38"/></clipPath></defs><path class="cls-2" d="M42.007,23.7a13.268,13.268,0,0,0,.859-4.962,10.564,10.564,0,0,0-1.289-5.551,8.789,8.789,0,0,0-3.486-3.269,15.076,15.076,0,0,0-5.079-1.529,46.8,46.8,0,0,0-6.064-.376H10.424v22.25H27.15a29.909,29.909,0,0,0,7.226-.753A13.189,13.189,0,0,0,39.253,27.3a8.445,8.445,0,0,0,2.754-3.6M45.418,11.49a13.366,13.366,0,0,1,1.693,7.056q0,7.573-5.129,11.525T27,34.022H10.424V55.755H6.381V4.245H26.494a48.263,48.263,0,0,1,7.782.612A19.665,19.665,0,0,1,40.87,7.091a12.446,12.446,0,0,1,4.548,4.4M60.954,0H0V60H36.961Z" transform="translate(0 0)"/><path class="cls-3" d="M69.239,4.432h-5.71C61.71,8.854,44.023,51.536,42.2,55.988h4.3l19.7-47.945L86.976,55.988h4.851Z" transform="translate(0 0)"/><g class="cls-4"><g class="cls-5"><path class="cls-6" d="M146.073,23.14a8.16,8.16,0,0,0-2.633-1.605,9.9,9.9,0,0,0-6.668,0,8.155,8.155,0,0,0-2.632,1.605,7.19,7.19,0,0,0-1.736,2.444,7.921,7.921,0,0,0,0,6.125,7.186,7.186,0,0,0,1.736,2.443,8.138,8.138,0,0,0,2.632,1.6,9.888,9.888,0,0,0,6.668,0,8.142,8.142,0,0,0,2.633-1.6,7.2,7.2,0,0,0,1.733-2.443,7.888,7.888,0,0,0,0-6.126,7.208,7.208,0,0,0-1.733-2.443m-.149,5.507a5.7,5.7,0,0,1-.429,2.2,5.483,5.483,0,0,1-1.2,1.788,5.6,5.6,0,0,1-1.836,1.2,6.579,6.579,0,0,1-4.715,0,5.615,5.615,0,0,1-1.836-1.2,5.446,5.446,0,0,1-1.2-1.789,5.881,5.881,0,0,1,0-4.4,5.45,5.45,0,0,1,1.2-1.79,5.615,5.615,0,0,1,1.836-1.2,6.55,6.55,0,0,1,4.715,0,5.6,5.6,0,0,1,1.836,1.2,5.45,5.45,0,0,1,1.2,1.79,5.687,5.687,0,0,1,.429,2.2" transform="translate(0 0)"/><path class="cls-6" d="M334.792,32.391a5.4,5.4,0,0,1-1.844,1.4h0a6.141,6.141,0,0,1-4.667.048,5.427,5.427,0,0,1-1.76-1.19,5.494,5.494,0,0,1-1.156-1.78,5.894,5.894,0,0,1-.418-2.223,5.607,5.607,0,0,1,3.359-5.175,5.486,5.486,0,0,1,4.26-.047,4.07,4.07,0,0,1,1.612,1.212l.161.2,2.029-1.357-.167-.2a5.822,5.822,0,0,0-2.543-1.781,9.231,9.231,0,0,0-6.373.064,8.048,8.048,0,0,0-2.567,1.636,7.355,7.355,0,0,0-1.678,2.442,7.709,7.709,0,0,0-.594,3.011,7.59,7.59,0,0,0,.619,3.073,7.378,7.378,0,0,0,1.71,2.431,7.991,7.991,0,0,0,2.578,1.606,8.766,8.766,0,0,0,3.194.579,9.052,9.052,0,0,0,3.428-.621,6.558,6.558,0,0,0,2.618-1.958l.155-.189-1.782-1.379Z" transform="translate(0 0)"/><path class="cls-6" d="M164.011,32.391a5.389,5.389,0,0,1-1.844,1.4,6.141,6.141,0,0,1-4.667.048,5.327,5.327,0,0,1-2.917-2.971,5.862,5.862,0,0,1-.417-2.222,5.607,5.607,0,0,1,3.359-5.175,5.479,5.479,0,0,1,4.259-.047,4.107,4.107,0,0,1,1.614,1.212l.16.2,2.03-1.357-.169-.2a5.814,5.814,0,0,0-2.542-1.781,9.235,9.235,0,0,0-6.373.064,8.036,8.036,0,0,0-2.568,1.636,7.317,7.317,0,0,0-1.676,2.442,7.66,7.66,0,0,0-.595,3.011,7.579,7.579,0,0,0,.618,3.073,7.345,7.345,0,0,0,1.71,2.431,7.982,7.982,0,0,0,2.578,1.606,8.771,8.771,0,0,0,3.195.579,9.038,9.038,0,0,0,3.426-.621,6.565,6.565,0,0,0,2.62-1.958l.154-.189-1.781-1.379Z" transform="translate(0 0)"/><path class="cls-6" d="M179.327,30.087a6.782,6.782,0,0,1-.19,1.605,3.715,3.715,0,0,1-.612,1.334,2.965,2.965,0,0,1-1.121.91,4.848,4.848,0,0,1-3.572,0,3,3,0,0,1-1.12-.91,3.7,3.7,0,0,1-.612-1.334,6.73,6.73,0,0,1-.189-1.605v-8.77H169.54v9.01a7.844,7.844,0,0,0,.325,2.267,5.235,5.235,0,0,0,1.051,1.919,5.1,5.1,0,0,0,1.893,1.331,8.258,8.258,0,0,0,5.621,0,5.11,5.11,0,0,0,1.893-1.332,5.231,5.231,0,0,0,1.049-1.918,7.8,7.8,0,0,0,.325-2.267v-9.01h-2.37Z" transform="translate(0 0)"/><path class="cls-6" d="M111.755,22.189a5.586,5.586,0,0,0-1.81-.676,10.813,10.813,0,0,0-2.091-.2h-4.838V35.976h2.37V29.617H108.2a9,9,0,0,0,1.755-.185,5.63,5.63,0,0,0,1.729-.653,3.847,3.847,0,0,0,1.319-1.287,3.778,3.778,0,0,0,.515-2.045,3.816,3.816,0,0,0-.48-1.97,3.669,3.669,0,0,0-1.285-1.288m-.737,3.278a1.727,1.727,0,0,1-.746,1.567,3.694,3.694,0,0,1-2.07.523h-2.816v-4.18H108.2a3.7,3.7,0,0,1,2.07.524,1.727,1.727,0,0,1,.746,1.566" transform="translate(0 0)"/><path class="cls-6" d="M127.164,28.162a3.543,3.543,0,0,0,1.1-2.695,3.821,3.821,0,0,0-.587-2.227,3.773,3.773,0,0,0-1.522-1.256,6.6,6.6,0,0,0-2.057-.544,20.64,20.64,0,0,0-2.239-.122h-4.208V35.976h2.371V29.617h1.922l4.177,6.359H129l-4.419-6.589a5.129,5.129,0,0,0,2.581-1.225m-1.4-2.695a1.665,1.665,0,0,1-.38,1.186,2.383,2.383,0,0,1-1.014.618,5.543,5.543,0,0,1-1.427.246q-.807.041-1.561.04h-1.359v-4.18h2.294a11.184,11.184,0,0,1,1.3.078,3.634,3.634,0,0,1,1.108.305,1.894,1.894,0,0,1,.755.624,1.85,1.85,0,0,1,.283,1.083" transform="translate(0 0)"/><path class="cls-6" d="M349.589,30.1a3.7,3.7,0,0,0-1.1-1.234,6.309,6.309,0,0,0-1.549-.8c-.573-.2-1.16-.395-1.746-.566A14.088,14.088,0,0,1,343.685,27a3.783,3.783,0,0,1-.932-.519,1.539,1.539,0,0,1-.461-.576,1.884,1.884,0,0,1-.144-.756,1.8,1.8,0,0,1,.249-.957,1.907,1.907,0,0,1,.661-.654,3.439,3.439,0,0,1,.976-.387,4.292,4.292,0,0,1,2.6.156,2.35,2.35,0,0,1,1.1.894l.169.25,1.944-1.556-.174-.187a4.963,4.963,0,0,0-2.036-1.364,7.969,7.969,0,0,0-4.512-.115,5.808,5.808,0,0,0-1.76.81,4.1,4.1,0,0,0-1.251,1.352,4.151,4.151,0,0,0-.151,3.506,3.494,3.494,0,0,0,.866,1.162,4.991,4.991,0,0,0,1.276.8,11.968,11.968,0,0,0,1.555.562l1.782.56a5.7,5.7,0,0,1,1.2.513,1.8,1.8,0,0,1,.649.619,1.887,1.887,0,0,1,.207.951,1.654,1.654,0,0,1-.265.93,2.412,2.412,0,0,1-.706.7,3.541,3.541,0,0,1-1,.435,4.258,4.258,0,0,1-2.884-.225,2.9,2.9,0,0,1-1.277-1.082l-.16-.251-2,1.508.136.189a4.047,4.047,0,0,0,1,.972,5.644,5.644,0,0,0,1.223.63,7.19,7.19,0,0,0,1.348.355,8.684,8.684,0,0,0,1.4.114,8.464,8.464,0,0,0,2.1-.259,5.758,5.758,0,0,0,1.817-.8,4.245,4.245,0,0,0,1.287-1.373A3.834,3.834,0,0,0,350,31.946a3.778,3.778,0,0,0-.411-1.842" transform="translate(0 0)"/><polygon class="cls-6" points="300.047 23.377 305.137 23.377 305.137 35.976 307.506 35.976 307.506 23.377 312.595 23.377 312.595 21.317 300.047 21.317 300.047 23.377"/><polygon class="cls-6" points="252.42 32.588 243.874 21.317 241.156 21.317 241.156 35.976 243.525 35.976 243.525 24.705 252.072 35.976 254.791 35.976 254.791 21.317 252.42 21.317 252.42 32.588"/><polygon class="cls-6" points="291.884 27.498 287.703 21.317 284.722 21.317 290.695 29.701 290.695 35.976 293.066 35.976 293.066 29.701 299.039 21.317 296.19 21.317 291.884 27.498"/><path class="cls-6" d="M266.986,21.317H264.91l-7.024,14.659h2.664l1.587-3.48h7.336l1.566,3.48h2.723l-6.7-14.507Zm1.57,9.12h-5.473l2.8-6.1Z" transform="translate(0 0)"/><polygon class="cls-6" points="279.234 21.317 276.864 21.317 276.864 35.976 286.28 35.976 286.28 33.916 279.234 33.916 279.234 21.317"/><polygon class="cls-6" points="204.054 29.377 211.382 29.377 211.382 27.317 204.054 27.317 204.054 23.377 211.905 23.377 211.905 21.317 201.682 21.317 201.682 35.976 212.296 35.976 212.296 33.917 204.054 33.917 204.054 29.377"/><polygon class="cls-6" points="229.201 21.317 222.176 35.976 224.837 35.976 230.233 24.673 235.33 35.976 238.054 35.976 231.276 21.317 229.201 21.317"/><path class="cls-6" d="M196.168,28.162a3.538,3.538,0,0,0,1.1-2.695,3.8,3.8,0,0,0-.588-2.226,3.747,3.747,0,0,0-1.521-1.257,6.583,6.583,0,0,0-2.056-.544,20.659,20.659,0,0,0-2.24-.122h-4.208V35.976h2.37V29.617h1.923l4.176,6.359h2.881l-4.419-6.589a5.121,5.121,0,0,0,2.581-1.225m-1.4-2.695a1.671,1.671,0,0,1-.38,1.187,2.379,2.379,0,0,1-1.014.617,5.543,5.543,0,0,1-1.427.246q-.807.041-1.562.04h-1.359v-4.18h2.295a11.171,11.171,0,0,1,1.3.078,3.618,3.618,0,0,1,1.108.305,1.879,1.879,0,0,1,.755.624,1.85,1.85,0,0,1,.283,1.083" transform="translate(0 0)"/><rect class="cls-6" x="315.944" y="21.317" width="2.37" height="14.659"/></g></g></svg>